<?xml version="1.0" encoding="utf-8"?>
<!-- Generator: Adobe Illustrator 24.1.1, SVG Export Plug-In . SVG Version: 6.00 Build 0)  -->
<svg version="1.1" id="Capa_1" xmlns="http://www.w3.org/2000/svg" xmlns:xlink="http://www.w3.org/1999/xlink" x="0px" y="0px"
	 viewBox="0 0 110 55" style="enable-background:new 0 0 110 55;" xml:space="preserve">
<style type="text/css">
	.st0{fill:#121416;}
</style>
<g>
	<path class="st0" d="M32.44,42.4l-2.77-7.61H16.14l-2.77,7.61H6.52L19.29,9.1h7.51l12.68,33.3H32.44z M22.91,16.28l-4.6,12.59h9.21
		L22.91,16.28z"/>
	<path class="st0" d="M60.2,42.4l-6.53-12.82h-3.38V42.4h-6.53V9.1h13.01c3.19,0,5.76,0.97,7.7,2.91c1.94,1.94,2.91,4.38,2.91,7.33
		c0,2.32-0.63,4.31-1.9,5.99c-1.27,1.67-3,2.83-5.19,3.45l7.14,13.62H60.2z M50.29,23.99h5.26c1.63,0,2.9-0.42,3.83-1.27
		c0.92-0.84,1.39-1.96,1.39-3.33c0-1.41-0.46-2.54-1.39-3.38c-0.92-0.85-2.2-1.27-3.83-1.27h-5.26V23.99z"/>
	<path class="st0" d="M85,42.4H73.12V9.1h11.93c4.85,0,8.81,1.49,11.86,4.46s4.58,7.04,4.58,12.21c0,5.14-1.53,9.19-4.6,12.17
		C93.81,40.91,89.85,42.4,85,42.4z M79.6,36.38h5.17c2.91,0,5.31-0.91,7.19-2.72c1.88-1.82,2.82-4.45,2.82-7.89
		c0-3.44-0.94-6.08-2.82-7.91c-1.88-1.83-4.26-2.75-7.14-2.75H79.6V36.38z"/>
</g>
</svg>
