<?xml version="1.0" encoding="utf-8"?>
<!-- Generator: Adobe Illustrator 24.1.1, SVG Export Plug-In . SVG Version: 6.00 Build 0)  -->
<svg version="1.1" id="Capa_1" xmlns="http://www.w3.org/2000/svg" xmlns:xlink="http://www.w3.org/1999/xlink" x="0px" y="0px"
	 viewBox="0 0 180 180" style="enable-background:new 0 0 180 180;" xml:space="preserve">
<style type="text/css">
	.st0{fill:#FFFFFF;}
</style>
<g>
	<path class="st0" d="M73.37,169.41c-0.01,1.14,0.61,3.17,3.51,3.62c1.99,0.31,3.46-0.73,3.67-2.05c0.18-1.15-0.4-2.1-2-2.66
		l-3.11-1.11c-4.41-1.55-6.31-4.85-5.78-8.26c0.59-3.74,4.31-7.06,10.01-6.17c6.6,1.03,8.76,5.75,8.57,9.18l-5.07,0.42
		c0.14-2.22-1.04-4.38-4.31-4.89c-2.09-0.33-3.53,0.48-3.76,1.97c-0.19,1.21,0.65,2.24,2.19,2.79l3.17,1.12
		c3.92,1.41,5.96,4.49,5.4,8.03c-0.71,4.51-5.18,7.06-9.76,6.34c-5.96-0.93-7.66-4.86-7.73-7.73L73.37,169.41z"/>
	<path class="st0" d="M46.86,167.65c-5.93-3.3-8.56-10.42-4.83-17.13c3.71-6.67,11.15-8.19,17.08-4.9
		c5.96,3.32,8.59,10.44,4.88,17.11C60.26,169.45,52.82,170.97,46.86,167.65 M56.52,150.28c-2.92-1.62-7.17-1.42-9.62,3
		c-2.45,4.41-0.4,8.16,2.52,9.79c2.95,1.64,7.22,1.4,9.67-3.01C61.54,155.65,59.47,151.92,56.52,150.28"/>
	<polygon class="st0" points="33.2,120.96 20.25,130.41 36.91,126.06 39.48,129.59 30.42,144 43.2,134.68 46.21,138.81 
		26.68,153.06 22.55,147.38 31.82,132.39 14.91,136.92 10.55,130.94 30.08,116.7 	"/>
	<path class="st0" d="M2.83,107.11c-1.3-6.66,2.45-13.26,9.98-14.73c7.5-1.47,13.45,3.24,14.76,9.9c1.31,6.69-2.44,13.3-9.94,14.76
		C10.1,118.51,4.14,113.8,2.83,107.11 M22.34,103.29c-0.64-3.28-3.54-6.4-8.5-5.43c-4.95,0.97-6.5,4.95-5.86,8.23
		c0.65,3.31,3.58,6.42,8.54,5.45C21.48,110.59,22.99,106.61,22.34,103.29"/>
	<path class="st0" d="M10.58,73.45c-1.14-0.01-3.17,0.61-3.62,3.51c-0.31,1.99,0.74,3.46,2.05,3.67c1.15,0.18,2.1-0.4,2.66-2
		l1.11-3.11c1.55-4.42,4.85-6.32,8.25-5.79c3.74,0.58,7.06,4.31,6.17,10c-1.03,6.6-5.75,8.76-9.17,8.58l-0.42-5.07
		c2.22,0.14,4.37-1.04,4.88-4.31c0.33-2.09-0.48-3.53-1.97-3.76c-1.21-0.19-2.24,0.65-2.79,2.19l-1.11,3.17
		c-1.41,3.92-4.49,5.96-8.02,5.41c-4.51-0.7-7.06-5.17-6.35-9.75c0.93-5.96,4.85-7.66,7.73-7.73L10.58,73.45z"/>
	<path class="st0" d="M12.28,47c3.29-5.93,10.4-8.58,17.11-4.86c6.68,3.7,8.21,11.14,4.93,17.07c-3.3,5.97-10.42,8.61-17.1,4.91
		C10.51,60.4,8.98,52.96,12.28,47 M29.67,56.63c1.62-2.92,1.4-7.17-3.01-9.62c-4.41-2.44-8.16-0.39-9.78,2.53
		c-1.64,2.95-1.39,7.22,3.02,9.67C24.31,61.65,28.03,59.58,29.67,56.63"/>
	<polygon class="st0" points="58.99,33.24 49.53,20.31 53.9,36.96 50.37,39.53 35.95,30.49 45.28,43.26 41.15,46.27 26.89,26.76 
		32.56,22.62 47.56,31.88 43.02,14.97 48.99,10.61 63.25,30.12 	"/>
	<path class="st0" d="M72.82,2.88c6.65-1.31,13.26,2.43,14.73,9.96c1.47,7.49-3.23,13.45-9.88,14.75
		c-6.69,1.31-13.29-2.43-14.76-9.92C61.43,10.15,66.13,4.19,72.82,2.88 M76.65,22.38c3.28-0.64,6.39-3.55,5.42-8.5
		c-0.97-4.95-4.95-6.49-8.23-5.85c-3.31,0.65-6.42,3.59-5.44,8.54C69.36,21.51,73.34,23.03,76.65,22.38"/>
	<path class="st0" d="M106.42,10.58c0-1.14-0.61-3.16-3.51-3.61c-1.99-0.31-3.46,0.74-3.66,2.06c-0.18,1.15,0.4,2.1,2,2.66l3.11,1.1
		c4.42,1.55,6.32,4.84,5.8,8.24c-0.58,3.74-4.3,7.06-9.99,6.18c-6.6-1.02-8.77-5.74-8.59-9.16l5.07-0.42
		c-0.14,2.22,1.05,4.37,4.32,4.88c2.09,0.32,3.52-0.49,3.75-1.97c0.19-1.21-0.65-2.24-2.19-2.79l-3.17-1.11
		c-3.92-1.4-5.97-4.47-5.42-8.01c0.7-4.51,5.16-7.07,9.74-6.36c5.96,0.92,7.67,4.84,7.74,7.71L106.42,10.58z"/>
	<path class="st0" d="M132.93,12.28c5.94,3.28,8.58,10.4,4.87,17.11c-3.69,6.68-11.13,8.22-17.06,4.93
		c-5.97-3.3-8.61-10.41-4.92-17.09C119.54,10.51,126.97,8.98,132.93,12.28 M123.32,29.66c2.92,1.62,7.17,1.4,9.62-3.02
		c2.44-4.41,0.39-8.16-2.54-9.78c-2.95-1.63-7.22-1.38-9.66,3.03C118.29,24.31,120.37,28.03,123.32,29.66"/>
	<polygon class="st0" points="146.71,58.92 159.63,49.46 142.98,53.84 140.4,50.32 149.43,35.89 136.68,45.23 133.66,41.11 
		153.15,26.83 157.3,32.49 148.05,47.5 164.95,42.94 169.32,48.91 149.83,63.19 	"/>
	<path class="st0" d="M177.1,72.71c1.32,6.65-2.41,13.26-9.94,14.75c-7.49,1.48-13.46-3.21-14.77-9.87
		c-1.32-6.69,2.41-13.3,9.9-14.78C169.81,61.33,175.78,66.02,177.1,72.71 M157.6,76.56c0.65,3.28,3.56,6.39,8.5,5.41
		c4.95-0.98,6.49-4.97,5.84-8.24c-0.65-3.31-3.6-6.41-8.54-5.43C158.45,69.27,156.95,73.25,157.6,76.56"/>
	<path class="st0" d="M169.43,106.38c1.14,0,3.16-0.62,3.61-3.51c0.31-1.99-0.74-3.46-2.06-3.66c-1.15-0.18-2.1,0.4-2.65,2.01
		l-1.1,3.11c-1.54,4.42-4.83,6.32-8.24,5.8c-3.74-0.58-7.07-4.29-6.19-9.99c1.02-6.6,5.73-8.78,9.15-8.59l0.43,5.07
		c-2.22-0.14-4.37,1.05-4.87,4.32c-0.32,2.09,0.49,3.52,1.98,3.75c1.21,0.19,2.24-0.66,2.78-2.19l1.11-3.18
		c1.4-3.92,4.47-5.97,8.01-5.42c4.51,0.69,7.07,5.16,6.37,9.74c-0.91,5.96-4.83,7.67-7.71,7.75L169.43,106.38z"/>
	<path class="st0" d="M167.79,132.84c-3.27,5.94-10.38,8.6-17.1,4.9c-6.68-3.69-8.23-11.12-4.96-17.06
		c3.29-5.97,10.4-8.63,17.08-4.94C169.53,119.44,171.08,126.86,167.79,132.84 M150.39,123.25c-1.61,2.92-1.39,7.17,3.03,9.61
		c4.42,2.44,8.16,0.37,9.77-2.55c1.63-2.95,1.37-7.22-3.05-9.66C155.73,118.21,152.02,120.29,150.39,123.25"/>
	<polygon class="st0" points="121.11,146.7 130.58,159.63 126.19,142.97 129.71,140.39 144.15,149.42 134.8,136.66 138.92,133.64 
		153.22,153.13 147.55,157.29 132.54,148.05 137.11,164.95 131.14,169.32 116.84,149.83 	"/>
	<path class="st0" d="M107.38,177.12c-6.66,1.33-13.27-2.39-14.77-9.92c-1.49-7.49,3.19-13.47,9.85-14.79
		c6.69-1.33,13.3,2.39,14.8,9.88C118.75,169.81,114.06,175.78,107.38,177.12 M103.49,157.62c-3.28,0.65-6.38,3.56-5.4,8.51
		c0.99,4.95,4.98,6.48,8.25,5.83c3.31-0.66,6.41-3.6,5.42-8.55C110.79,158.46,106.8,156.96,103.49,157.62"/>
</g>
</svg>
