<?xml version="1.0" encoding="utf-8"?>
<!-- Generator: Adobe Illustrator 24.1.1, SVG Export Plug-In . SVG Version: 6.00 Build 0)  -->
<svg version="1.1" id="Capa_1" xmlns="http://www.w3.org/2000/svg" xmlns:xlink="http://www.w3.org/1999/xlink" x="0px" y="0px"
	 viewBox="0 0 142 102" style="enable-background:new 0 0 142 102;" xml:space="preserve">
<style type="text/css">
	.st0{fill:#FFFFFF;}
</style>
<g>
	<path class="st0" d="M74.06,19V11.8H85.8V5.68H56.2v6.12h11.74v7.21c-9.52,0.77-18.5,5.13-24.98,12.23
		c-6.4,7.01-9.93,16.1-9.93,25.6c0,20.94,17.03,37.97,37.97,37.97c20.94,0,37.97-17.03,37.97-37.97
		C108.97,36.93,93.57,20.57,74.06,19z M71,88.7c-17.57,0-31.86-14.29-31.86-31.86c0-7.97,2.96-15.6,8.33-21.48
		c6.02-6.6,14.6-10.38,23.53-10.38c17.57,0,31.86,14.29,31.86,31.86C102.86,74.41,88.57,88.7,71,88.7z"/>
	<polygon class="st0" points="74.06,53.78 74.06,35.67 67.94,35.67 67.94,59.9 95.23,59.9 95.23,53.78 	"/>
</g>
</svg>
