<?xml version="1.0" encoding="utf-8"?>
<!-- Generator: Adobe Illustrator 24.1.1, SVG Export Plug-In . SVG Version: 6.00 Build 0)  -->
<svg version="1.1" id="Capa_1" xmlns="http://www.w3.org/2000/svg" xmlns:xlink="http://www.w3.org/1999/xlink" x="0px" y="0px"
	 viewBox="0 0 142 67" style="enable-background:new 0 0 142 67;" xml:space="preserve">
<style type="text/css">
	.st0{fill:#FFFFFF;}
</style>
<g>
	<g>
		<g>
			<path class="st0" d="M13.08,29.9c3.23,0,5.53-1.38,5.53-5.07v-8.35c0-7.72,4.55-11.35,11.47-11.35h2.3v6.57h-2.13
				c-2.13,0-4.38,1.09-4.38,4.67v9.79c0,3.51-2.02,6.22-5.7,7.32c3.63,1.09,5.7,3.8,5.7,7.37v9.79c0,3.57,2.25,4.72,4.38,4.72h2.13
				v6.51h-2.3c-6.91,0-11.47-3.57-11.47-11.29v-8.41c0-3.69-2.3-5.13-5.53-5.13V29.9z"/>
		</g>
	</g>
	<g>
		<g>
			<path class="st0" d="M128.92,37.1c-3.23,0-5.53,1.38-5.53,5.07v8.35c0,7.72-4.55,11.35-11.47,11.35h-2.3v-6.57h2.13
				c2.13,0,4.38-1.09,4.38-4.67v-9.79c0-3.51,2.02-6.22,5.7-7.32c-3.63-1.09-5.7-3.8-5.7-7.37v-9.79c0-3.57-2.25-4.72-4.38-4.72
				h-2.13V5.12h2.3c6.91,0,11.47,3.57,11.47,11.29v8.41c0,3.69,2.31,5.13,5.53,5.13V37.1z"/>
		</g>
	</g>
	<g>
		<polygon class="st0" points="73.4,53.75 65.61,34.54 46.39,26.75 86.9,13.25 		"/>
	</g>
</g>
</svg>
