<?xml version="1.0" encoding="utf-8"?>
<!-- Generator: Adobe Illustrator 24.1.1, SVG Export Plug-In . SVG Version: 6.00 Build 0)  -->
<svg version="1.1" id="Capa_1" xmlns="http://www.w3.org/2000/svg" xmlns:xlink="http://www.w3.org/1999/xlink" x="0px" y="0px"
	 viewBox="0 0 142 88" style="enable-background:new 0 0 142 88;" xml:space="preserve">
<style type="text/css">
	.st0{fill:#FFFFFF;}
</style>
<g>
	<polygon class="st0" points="51.74,12.02 51.74,4.18 46.47,4.18 46.47,12.02 34.7,12.02 34.7,18.13 46.47,18.13 46.47,25.97 
		51.74,25.97 51.74,18.13 121.39,18.13 121.39,12.02 	"/>
	<polygon class="st0" points="104.66,32.91 99.4,32.91 99.4,40.75 34.7,40.75 34.7,46.87 99.4,46.87 99.4,54.71 104.66,54.71 
		104.66,46.87 121.39,46.87 121.39,40.75 104.66,40.75 	"/>
	<polygon class="st0" points="80.68,60.52 75.41,60.52 75.41,69.49 34.7,69.49 34.7,75.61 75.41,75.61 75.41,82.32 80.68,82.32 
		80.68,75.61 121.39,75.61 121.39,69.49 80.68,69.49 	"/>
</g>
</svg>
