<?xml version="1.0" encoding="utf-8"?>
<!-- Generator: Adobe Illustrator 24.1.1, SVG Export Plug-In . SVG Version: 6.00 Build 0)  -->
<svg version="1.1" id="Capa_1" xmlns="http://www.w3.org/2000/svg" xmlns:xlink="http://www.w3.org/1999/xlink" x="0px" y="0px"
	 viewBox="0 0 142 102" style="enable-background:new 0 0 142 102;" xml:space="preserve">
<style type="text/css">
	.st0{fill:#FFFFFF;}
</style>
<g>
	<g>
		<g>
			<path class="st0" d="M68.89,72.15v-5.31c-6.99-1.14-10.17-6.3-10.52-10.37l6.85-1.54c0.25,2.88,2.23,5.46,6.5,5.46
				c2.48,0,4.27-1.19,4.27-3.12c0-1.44-1.09-2.38-3.07-2.83l-4.42-1.04c-5.56-1.34-8.98-4.71-8.98-9.42c0-5.56,4.17-9.38,9.37-10.27
				v-5.36h5.7v5.51c5.46,1.19,7.94,5.11,8.63,8.48l-6.9,1.83c-0.3-1.54-1.14-4.12-5.06-4.12c-2.78,0-4.17,1.64-4.17,3.22
				c0,1.34,0.99,2.38,2.93,2.83l4.32,0.94c6.65,1.49,9.28,5.36,9.28,9.82c0,4.56-3.27,8.83-9.03,9.87v5.41H68.89z"/>
		</g>
	</g>
	<g>
		<path class="st0" d="M71,97.9l-6.52-6.47l-8.2,4.14l-4.21-8.17l-9.08,1.4l-1.47-9.07l-9.07-1.47l1.4-9.08l-8.17-4.2l4.14-8.2
			l-6.47-6.52l6.47-6.52l-4.14-8.2l8.17-4.2l-1.4-9.08l9.07-1.47l1.47-9.07l9.08,1.4l4.21-8.17l8.2,4.14L71,2.6l6.52,6.47l8.2-4.14
			l4.2,8.17l9.08-1.4l1.48,9.07l9.07,1.47l-1.4,9.08l8.17,4.2l-4.14,8.2l6.47,6.52l-6.47,6.52l4.14,8.2l-8.17,4.2l1.4,9.08
			l-9.07,1.47l-1.48,9.07l-9.08-1.4l-4.2,8.17l-8.2-4.14L71,97.9z M65.66,83.99l5.34,5.3l5.34-5.3l6.72,3.39l3.44-6.69l7.44,1.15
			l1.21-7.43l7.43-1.21l-1.15-7.44l6.69-3.44l-3.39-6.72l5.3-5.34l-5.3-5.34l3.39-6.72l-6.69-3.44l1.15-7.44l-7.43-1.21l-1.21-7.43
			l-7.44,1.15l-3.44-6.69l-6.72,3.39L71,11.21l-5.34,5.3l-6.72-3.39l-3.44,6.69l-7.44-1.15l-1.21,7.43l-7.43,1.21l1.15,7.44
			l-6.69,3.44l3.39,6.72l-5.3,5.34l5.3,5.34l-3.39,6.72l6.69,3.44l-1.15,7.44l7.43,1.21l1.21,7.43l7.44-1.15l3.44,6.69L65.66,83.99z
			"/>
	</g>
</g>
</svg>
