<?xml version="1.0" encoding="utf-8"?>
<!-- Generator: Adobe Illustrator 24.1.1, SVG Export Plug-In . SVG Version: 6.00 Build 0)  -->
<svg version="1.1" id="Capa_1" xmlns="http://www.w3.org/2000/svg" xmlns:xlink="http://www.w3.org/1999/xlink" x="0px" y="0px"
	 viewBox="0 0 142 88" style="enable-background:new 0 0 142 88;" xml:space="preserve">
<style type="text/css">
	.st0{fill:#FFFFFF;}
</style>
<g>
	<path class="st0" d="M118.18,11.62c-0.58-0.67-1.42-1.05-2.31-1.05H43.62L42.74,4.4c-0.21-1.51-1.5-2.63-3.03-2.63H23.07v6.12
		h13.99l0.87,6.17c0,0,0,0,0,0l3.77,26.72l3.62,25.66c0.21,1.51,1.5,2.63,3.03,2.63h59.39v-6.12H51.01l-0.84-5.92h60.01
		c1.52,0,2.82-1.12,3.03-2.63l5.69-40.34C119.03,13.17,118.76,12.28,118.18,11.62z M107.52,50.9H49.31l-4.83-34.22h67.88
		L107.52,50.9z"/>
	<path class="st0" d="M62.75,72.12c-3.48,0-6.31,2.82-6.31,6.31c0,3.48,2.82,6.31,6.31,6.31s6.31-2.82,6.31-6.31
		C69.05,74.94,66.23,72.12,62.75,72.12z"/>
	<path class="st0" d="M94.09,72.12c-3.48,0-6.31,2.82-6.31,6.31c0,3.48,2.82,6.31,6.31,6.31s6.31-2.82,6.31-6.31
		C100.39,74.94,97.57,72.12,94.09,72.12z"/>
</g>
</svg>
