<?xml version="1.0" encoding="utf-8"?>
<!-- Generator: Adobe Illustrator 24.1.1, SVG Export Plug-In . SVG Version: 6.00 Build 0)  -->
<svg version="1.1" id="Capa_1" xmlns="http://www.w3.org/2000/svg" xmlns:xlink="http://www.w3.org/1999/xlink" x="0px" y="0px"
	 viewBox="0 0 230 174" style="enable-background:new 0 0 230 174;" xml:space="preserve">
<style type="text/css">
	.st0{fill:#008AFF;}
	.st1{fill:#FFFFFF;}
</style>
<g>
	<polygon class="st0" points="207.43,71.2 205.8,72.77 219.52,87.03 123.18,87.03 123.18,89.3 219.52,89.3 205.8,103.56 
		207.43,105.13 223.75,88.17 	"/>
	<g>
		<g>
			<path class="st1" d="M73.11,161.53c-0.01,1.07,0.57,2.97,3.29,3.4c1.87,0.29,3.25-0.69,3.44-1.92c0.17-1.08-0.37-1.97-1.88-2.5
				l-2.91-1.04c-4.14-1.46-5.93-4.56-5.43-7.75c0.55-3.51,4.05-6.62,9.39-5.79c6.2,0.97,8.22,5.4,8.05,8.61l-4.76,0.39
				c0.13-2.09-0.98-4.11-4.04-4.59c-1.96-0.31-3.31,0.45-3.53,1.85c-0.18,1.14,0.61,2.1,2.05,2.62l2.98,1.05
				c3.68,1.32,5.59,4.21,5.07,7.53c-0.66,4.23-4.86,6.62-9.16,5.95c-5.6-0.88-7.19-4.56-7.25-7.26L73.11,161.53z"/>
		</g>
		<g>
			<path class="st1" d="M48.22,159.89c-5.56-3.1-8.04-9.78-4.54-16.07c3.48-6.26,10.46-7.69,16.03-4.6
				c5.59,3.11,8.06,9.8,4.58,16.06C60.8,161.57,53.82,163,48.22,159.89 M57.29,143.58c-2.74-1.52-6.73-1.33-9.03,2.81
				c-2.3,4.14-0.38,7.66,2.36,9.18c2.77,1.54,6.78,1.31,9.08-2.82C62,148.62,60.06,145.12,57.29,143.58"/>
		</g>
		<g>
			<polygon class="st1" points="35.4,116.06 23.25,124.92 38.89,120.85 41.3,124.16 32.79,137.69 44.79,128.94 47.62,132.82 
				29.29,146.18 25.4,140.86 34.11,126.79 18.24,131.03 14.15,125.42 32.48,112.06 			"/>
		</g>
		<g>
			<path class="st1" d="M6.9,103.06c-1.22-6.25,2.3-12.45,9.36-13.83c7.04-1.38,12.63,3.04,13.85,9.29
				c1.23,6.28-2.29,12.48-9.33,13.85C13.72,113.76,8.13,109.34,6.9,103.06 M25.21,99.48c-0.6-3.08-3.32-6-7.97-5.09
				c-4.65,0.91-6.1,4.65-5.5,7.73c0.61,3.11,3.36,6.03,8.01,5.12C24.4,106.32,25.82,102.59,25.21,99.48"/>
		</g>
		<g>
			<path class="st1" d="M14.18,71.47c-1.07-0.01-2.97,0.57-3.4,3.29c-0.29,1.86,0.69,3.25,1.92,3.44c1.08,0.17,1.97-0.37,2.5-1.88
				l1.04-2.91c1.46-4.15,4.55-5.93,7.74-5.43c3.51,0.55,6.62,4.04,5.79,9.39c-0.97,6.2-5.4,8.23-8.61,8.05l-0.39-4.76
				c2.08,0.13,4.1-0.98,4.58-4.05c0.31-1.96-0.45-3.31-1.85-3.53c-1.14-0.18-2.1,0.61-2.62,2.05l-1.05,2.98
				c-1.32,3.68-4.21,5.59-7.53,5.08c-4.24-0.66-6.63-4.85-5.96-9.16c0.87-5.59,4.55-7.19,7.25-7.26L14.18,71.47z"/>
		</g>
		<g>
			<path class="st1" d="M15.77,46.64c3.09-5.57,9.76-8.05,16.06-4.56c6.27,3.47,7.71,10.45,4.62,16.02
				c-3.1,5.6-9.78,8.08-16.05,4.61C14.11,59.22,12.67,52.24,15.77,46.64 M32.09,55.68c1.52-2.74,1.32-6.73-2.83-9.03
				c-4.14-2.29-7.66-0.37-9.18,2.38c-1.54,2.77-1.3,6.78,2.84,9.07C27.06,60.39,30.55,58.45,32.09,55.68"/>
		</g>
		<g>
			<polygon class="st1" points="59.61,33.72 50.73,21.58 54.83,37.22 51.52,39.63 37.98,31.14 46.74,43.13 42.87,45.96 29.48,27.64 
				34.8,23.76 48.88,32.45 44.62,16.58 50.22,12.48 63.61,30.8 			"/>
		</g>
		<g>
			<path class="st1" d="M72.59,5.23C78.83,4,85.03,7.51,86.42,14.58c1.38,7.03-3.03,12.62-9.28,13.85
				c-6.28,1.23-12.48-2.28-13.85-9.31C61.9,12.06,66.31,6.46,72.59,5.23 M76.18,23.53c3.07-0.6,6-3.33,5.08-7.97
				c-0.91-4.65-4.65-6.09-7.73-5.49c-3.11,0.61-6.02,3.37-5.11,8.01C69.34,22.72,73.07,24.14,76.18,23.53"/>
		</g>
		<g>
			<path class="st1" d="M104.13,12.46c0-1.07-0.58-2.97-3.3-3.39c-1.86-0.29-3.25,0.7-3.44,1.93c-0.17,1.08,0.38,1.97,1.88,2.49
				l2.92,1.03c4.15,1.45,5.94,4.54,5.44,7.74c-0.54,3.51-4.03,6.63-9.38,5.8c-6.2-0.96-8.23-5.38-8.06-8.6l4.76-0.4
				c-0.13,2.08,0.99,4.1,4.05,4.58c1.96,0.3,3.31-0.46,3.52-1.85c0.18-1.14-0.61-2.1-2.06-2.62l-2.98-1.04
				c-3.68-1.31-5.6-4.2-5.09-7.52c0.65-4.24,4.84-6.63,9.14-5.97c5.6,0.86,7.2,4.54,7.27,7.24L104.13,12.46z"/>
		</g>
		<g>
			<path class="st1" d="M129.01,14.05c5.57,3.08,8.06,9.76,4.57,16.06c-3.47,6.27-10.44,7.71-16.01,4.63
				c-5.6-3.1-8.08-9.77-4.62-16.04C116.44,12.39,123.41,10.95,129.01,14.05 M119.98,30.37c2.74,1.52,6.73,1.31,9.02-2.83
				c2.29-4.14,0.36-7.66-2.38-9.18c-2.77-1.53-6.78-1.3-9.07,2.84C115.27,25.35,117.21,28.84,119.98,30.37"/>
		</g>
		<g>
			<polygon class="st1" points="141.94,57.83 154.07,48.95 138.44,53.06 136.02,49.76 144.5,36.21 132.52,44.98 129.69,41.11 
				147.98,27.71 151.88,33.02 143.2,47.11 159.06,42.83 163.16,48.43 144.87,61.83 			"/>
		</g>
		<g>
			<path class="st1" d="M170.46,70.77c1.24,6.24-2.27,12.45-9.33,13.85c-7.03,1.39-12.63-3.01-13.87-9.26
				c-1.24-6.28,2.26-12.48,9.29-13.87C163.62,60.09,169.22,64.49,170.46,70.77 M152.17,74.39c0.61,3.08,3.34,5.99,7.98,5.07
				c4.65-0.92,6.09-4.66,5.48-7.74c-0.61-3.11-3.37-6.02-8.02-5.1C152.96,67.54,151.55,71.28,152.17,74.39"/>
		</g>
		<g>
			<path class="st1" d="M163.26,102.37c1.07,0,2.97-0.58,3.39-3.3c0.29-1.86-0.7-3.24-1.93-3.44c-1.08-0.16-1.97,0.38-2.49,1.88
				l-1.03,2.92c-1.45,4.15-4.54,5.94-7.73,5.45c-3.51-0.54-6.63-4.03-5.81-9.37c0.95-6.2,5.38-8.24,8.59-8.07l0.4,4.76
				c-2.08-0.13-4.1,0.99-4.57,4.05c-0.3,1.96,0.46,3.31,1.85,3.52c1.14,0.17,2.1-0.62,2.61-2.06l1.04-2.98
				c1.31-3.68,4.19-5.6,7.51-5.09c4.24,0.65,6.64,4.84,5.97,9.14c-0.86,5.6-4.54,7.2-7.23,7.27L163.26,102.37z"/>
		</g>
		<g>
			<path class="st1" d="M161.73,127.21c-3.07,5.57-9.74,8.07-16.05,4.6c-6.27-3.46-7.73-10.43-4.66-16.01
				c3.09-5.6,9.76-8.1,16.03-4.64C163.36,114.63,164.82,121.6,161.73,127.21 M145.39,118.2c-1.51,2.74-1.3,6.73,2.85,9.02
				c4.15,2.29,7.66,0.35,9.17-2.4c1.53-2.77,1.29-6.78-2.86-9.06C150.41,113.48,146.92,115.43,145.39,118.2"/>
		</g>
		<g>
			<polygon class="st1" points="117.91,140.22 126.8,152.35 122.68,136.72 125.99,134.3 139.54,142.77 130.76,130.8 134.63,127.96 
				148.05,146.26 142.73,150.15 128.64,141.48 132.93,157.34 127.33,161.45 113.91,143.15 			"/>
		</g>
		<g>
			<path class="st1" d="M105.02,168.77c-6.25,1.25-12.46-2.25-13.86-9.31c-1.4-7.03,3-12.64,9.24-13.88
				c6.28-1.25,12.49,2.24,13.89,9.27C115.7,161.91,111.3,167.52,105.02,168.77 M101.38,150.47c-3.08,0.61-5.99,3.35-5.06,7.99
				c0.93,4.64,4.67,6.08,7.75,5.47c3.11-0.62,6.01-3.38,5.09-8.03C108.22,151.26,104.48,149.85,101.38,150.47"/>
		</g>
	</g>
</g>
</svg>
