<?xml version="1.0" encoding="utf-8"?>
<!-- Generator: Adobe Illustrator 24.1.1, SVG Export Plug-In . SVG Version: 6.00 Build 0)  -->
<svg version="1.1" id="Capa_1" xmlns="http://www.w3.org/2000/svg" xmlns:xlink="http://www.w3.org/1999/xlink" x="0px" y="0px"
	 viewBox="0 0 156 55" style="enable-background:new 0 0 156 55;" xml:space="preserve">
<style type="text/css">
	.st0{fill:#231F20;}
</style>
<g>
	<g>
		<path class="st0" d="M31.97,19.86c-1.61,0.48-2.67,1.71-2.36,2.74c0.31,1.03,1.86,1.49,3.47,1.01c1.61-0.48,2.67-1.71,2.36-2.74
			C35.14,19.85,33.59,19.39,31.97,19.86z"/>
		<path class="st0" d="M89.32,19.86c-1.6,0.48-2.67,1.71-2.37,2.74c0.31,1.03,1.86,1.49,3.47,1.01c1.61-0.48,2.67-1.71,2.37-2.74
			C92.49,19.85,90.94,19.39,89.32,19.86z"/>
		<path class="st0" d="M61.46,35.43c3.33-3.06,4.17-7.31,1.85-9.48c-2.31-2.17-6.88-1.43-10.22,1.64c-3.34,3.07-4.17,7.32-1.86,9.48
			C53.54,39.23,58.11,38.5,61.46,35.43z M55.69,30.7c1.2-2.64,2.97-4.43,3.95-3.98c0.98,0.44,0.8,2.94-0.39,5.59
			c-1.2,2.64-2.97,4.42-3.95,3.98C54.33,35.84,54.5,33.34,55.69,30.7z"/>
		<path class="st0" d="M148.69,16.38c-0.11-0.15-0.25-0.29-0.38-0.43c-1.26-1.22-3.05-1.98-5.09-1.99c-0.18,0-0.37,0.01-0.56,0.03
			c-3.11,0.2-5.83,2.14-6.83,4.78c-0.44,1.15-0.32,2.86-0.1,3.75c0.54,2.3,1.67,6.04,2.42,8.6c0.38,1.31,0.92,3.57,0.83,5.27
			c-0.22,4.34-2.89,8.04-6.56,8.82c-0.21,0.04-0.43,0.07-0.64,0.09c-1.06,0.12-2.11-0.02-3.07-0.38c-1.7-0.72-2.93-2.32-3.23-4.3
			c-0.92,0.74-1.51,1.88-1.51,3.15c0,1.57,1.67,4.56,6.9,4.56c4.86,0,9.26-2.76,11.53-6.78c0.89-1.58,1.45-3.37,1.6-5.25
			c0,0,0-0.01,0-0.01c0.08-1.32-0.04-2.59-0.36-3.78c-0.28-1.06-3.04-8.79-3.43-10.45c-0.13-0.54-0.3-1.15-0.25-1.71
			c0.01-0.16,0.02-0.3,0.04-0.46c0-0.02,0.01-0.02,0.01-0.03c0-0.02,0-0.05,0.01-0.08c0.01-0.12,0.02-0.24,0.05-0.35
			c0.05-0.3,0.14-0.6,0.26-0.91c0.48-1.21,1.38-2.13,2.37-2.55c0.67-0.29,1.38-0.35,2.04-0.14c1.62,0.53,2.31,2.6,1.51,4.62
			c-0.46,1.16-1.31,2.05-2.25,2.49c0.33,0.08,0.68,0.14,1.04,0.14c2.31,0,4.33-1.82,4.48-4.09C149.57,18,149.26,17.08,148.69,16.38z
			"/>
		<path class="st0" d="M89.91,41.99c-3.55-0.87-6.81-2.11-9.66-3.05c-0.47-0.15-0.9-0.29-1.34-0.42l8.38-24.09
			c1.15-3.11,3.19-4.05,4.46-3.65c1.31,0.41,1.87,2.26,1.42,4.12c-0.04,0.17-0.08,0.33-0.13,0.49c-0.39,1.16-1.12,2.05-1.93,2.49
			c0.27,0.09,0.58,0.14,0.9,0.14c1.98,0.01,3.69-1.82,3.83-4.08c0.03-0.54-0.03-1.05-0.17-1.53c-0.11-0.39-0.3-0.77-0.51-1.1
			c-0.11-0.15-0.22-0.29-0.33-0.43c-1.08-1.22-2.6-1.99-4.34-1.99c-0.01,0-0.02,0-0.02,0c-0.14,0-0.26,0-0.39,0.02
			c-0.03,0-0.06,0-0.09,0c-0.03,0-0.07,0.01-0.1,0.01c-2.8,0.2-5.23,1.74-6.68,4c-0.25,0.39-0.48,0.81-0.67,1.25
			c-0.13,0.31-0.24,0.63-0.34,0.96L74.4,37.61c-0.39-0.01-0.76-0.01-1.12,0.04c-0.35,0.04-0.69,0.11-1,0.21
			c0.1-0.51,0.17-1.03,0.21-1.55c0,0,0-0.01,0-0.01c0.09-1.32-0.04-2.59-0.36-3.78c-0.29-1.06-3.04-8.79-3.43-10.45
			c-0.13-0.54-0.29-1.15-0.25-1.71c0.01-0.16,0.02-0.3,0.05-0.46c0-0.02,0-0.02,0-0.03c0.01-0.02,0.01-0.05,0.01-0.08
			c0.02-0.12,0.03-0.24,0.05-0.35c0.05-0.3,0.14-0.6,0.26-0.91c0.49-1.21,1.38-2.13,2.38-2.55c0.67-0.29,1.38-0.35,2.04-0.14
			c1.64,0.53,2.31,2.6,1.51,4.62c-0.46,1.16-1.3,2.05-2.25,2.49c0.33,0.08,0.68,0.14,1.04,0.14c2.33,0,4.33-1.82,4.48-4.09
			c0.06-0.99-0.24-1.91-0.8-2.62c-0.13-0.15-0.26-0.29-0.4-0.43c-1.25-1.22-3.05-1.98-5.08-1.99c-0.2,0-0.38,0.01-0.56,0.03
			c-3.11,0.2-5.84,2.14-6.83,4.78c-0.43,1.15-0.31,2.86-0.1,3.75c0.54,2.3,1.67,6.04,2.42,8.6c0.38,1.31,0.92,3.57,0.83,5.27
			c-0.22,4.34-2.89,8.04-6.56,8.82c-0.22,0.04-0.43,0.07-0.64,0.09c-1.06,0.12-2.11-0.02-3.08-0.38c-1.69-0.72-2.93-2.32-3.23-4.3
			c-0.92,0.74-1.51,1.88-1.51,3.15c0,1.57,1.66,4.56,6.9,4.56c4.86,0,9.25-2.76,11.52-6.78c0.41-0.73,0.76-1.5,1.02-2.31
			c0.28-0.02,0.55-0.05,0.82-0.05c1.53-0.01,2.97,0.38,4.46,1.03c2.75,1.21,5.67,3.28,9.72,5.14c0.58,0.31,1.19,0.57,1.82,0.8
			c1.7,0.61,3.52,0.95,5.44,0.95c4.76,0,9.03-2.09,11.96-5.4v-0.04C100.35,43.7,94.84,43.2,89.91,41.99z"/>
		<path class="st0" d="M13.71,47.12c0.13,0,0.25-0.01,0.39-0.02c-0.14,0.01-0.28,0.02-0.41,0.02C13.69,47.12,13.7,47.12,13.71,47.12
			z"/>
		<path class="st0" d="M125.45,37.54c2.77,1.98,7.01,0.87,9.46-2.48c0.09-0.12,0.18-0.24,0.25-0.36h-0.49
			c-1.71,1.94-4.14,2.45-5.8,1.06c-0.73-0.6-1.2-1.49-1.41-2.5c0.06,0.27,2.17,0.05,2.4,0.01c0.9-0.13,1.74-0.44,2.56-0.83
			c1.47-0.73,3.24-1.89,3.54-3.65c0.03-0.19,0.05-0.38,0.05-0.57c0-0.63-0.2-1.24-0.53-1.73c-0.15-0.2-0.32-0.39-0.5-0.57
			c-0.19-0.18-0.39-0.35-0.61-0.51c-1.32-0.95-2.99-1.18-4.65-0.81c-1.78,0.41-3.53,1.54-4.82,3.28c-1.87,2.54-2.17,5.64-1,7.86
			c-0.24,0.16-0.49,0.3-0.73,0.4c-0.43,0.17-1.41,0.33-1.91,0.27c-0.36-0.06-1-0.2-1.35-0.7c-0.62-0.88,1.13-5.73,2.39-8.59
			l0.1-0.24l-0.23-0.12c-0.12-0.07-0.24-0.13-0.38-0.22c-0.22-0.15-0.43-0.31-0.61-0.5c-0.69-0.51-1.3-1.12-1.79-1.82
			c-0.88,0.54-2.08,1.02-3.37,1.34c-0.11,0.03-0.2,0.05-0.31,0.07c0.01-0.01,0.01-0.02,0.01-0.04c0.23-0.63,0.35-1.3,0.35-1.97
			c0-0.09-0.01-2.11-1.12-3.05c-1.45-1.22-3.93-0.71-5.52,1.15c-0.08,0.09-0.16,0.19-0.25,0.32l-0.01,0.02l-0.04,0.04
			c-0.08,0.11-0.14,0.21-0.21,0.33c-0.01,0.01-0.02,0.01-0.02,0.03l-0.02,0.02c-0.06,0.09-0.12,0.2-0.16,0.29l-0.02,0.02
			c0,0.01-0.01,0.02-0.01,0.03c-0.06,0.11-0.11,0.22-0.16,0.34c-0.01,0.02-0.02,0.04-0.03,0.07c-0.06,0.12-0.09,0.23-0.13,0.33v0
			c0,0.01,0,0.02-0.01,0.02c-0.17,0.43-0.26,0.88-0.26,1.33c0,0.42,0.09,0.84,0.24,1.24c0.05,0.14,0.11,0.27,0.18,0.4
			c0.42,0.81,1.15,1.43,2.01,1.77l-0.62,1.74c-0.08,0.25-0.17,0.48-0.27,0.72c-0.12,0.33-0.25,0.68-0.36,1.02
			c-0.21,0.62-1.63,3.63-3,4.05c-0.33,0.1-0.64,0.04-0.93-0.18c-0.28-0.22-0.19-0.75-0.13-1.13l0.02-0.11
			c0.05-0.24,0.18-0.62,0.35-1c0.23-0.58,0.7-1.63,0.92-2.51c0.85-2.63,0.42-5.15-1.28-6.31c-1.23-0.85-2.89-0.81-4.53-0.06
			c0,0,1.13-3.13,1.11-3.13l0.31-0.85c0.02-0.04,0.03-0.09,0.05-0.14c0.05-0.15,0.08-0.32,0.08-0.49c0-0.61-0.35-1.13-0.86-1.39
			c-0.18-0.08-0.39-0.14-0.6-0.16c-0.03,0-0.06-0.01-0.09-0.01c-0.04,0-0.07,0.01-0.09,0.01h-0.25l-4.2,0.01l-0.17,0.51
			c0.6,0.33,1.02,0.98,1.02,1.72c0,0.16-0.02,0.32-0.06,0.47l-3.78,10.5l0,0l-0.74,2.11c-0.02,0.03-0.02,0.06-0.05,0.09
			c-0.15,0.37-0.46,0.74-0.89,1.02c-0.86,0.57-1.85,0.6-2.23,0.05c-0.17-0.25-0.17-0.57-0.05-0.92c0.01-0.04,0.03-0.08,0.04-0.12
			l1.45-4.04l1.75-4.86h-4.19v-0.01l-2.54,0.01l-0.18,0.49c0.61,0.34,1.03,0.98,1.03,1.72c0,0.19-0.03,0.36-0.08,0.52l0,0
			c-0.68,1.9-1.59,4.44-2.31,6.45l-0.05,0.16c0,0.01-0.01,0.02-0.01,0.03l-0.01,0.03c0,0,0-0.01,0-0.02
			c-0.25,0.92-0.17,1.83,0.32,2.55c0.01,0.03,0.04,0.05,0.06,0.08l-0.01-0.01c0.03,0.05,0.08,0.09,0.12,0.14
			c0.05,0.05,0.09,0.1,0.13,0.15c0.05,0.05,0.11,0.1,0.17,0.15c0.05,0.04,0.1,0.08,0.16,0.12c0.05,0.04,0.13,0.09,0.2,0.13
			c0.05,0.03,0.1,0.07,0.16,0.1c0.07,0.04,0.15,0.07,0.23,0.1c0.06,0.03,0.12,0.05,0.18,0.07c0.08,0.03,0.17,0.06,0.26,0.07
			c0.06,0.02,0.12,0.04,0.18,0.05c0.09,0.02,0.19,0.03,0.28,0.05c0.07,0.01,0.13,0.02,0.18,0.03c0.11,0.01,0.22,0.01,0.34,0.01
			c0.05,0.01,0.1,0.01,0.16,0.01c0.17,0,0.34-0.01,0.51-0.03c0.98-0.1,2.04-0.49,3.02-1.15c0.25-0.17,0.49-0.35,0.71-0.54
			c0-0.01,0.02-0.02,0.02-0.03l0,0c0.05-0.04,0.11-0.09,0.16-0.15c0.04-0.04,0.09-0.08,0.13-0.11c0.04-0.04,0.08-0.1,0.12-0.13
			c0.12,0.75,0.64,1.41,1.4,1.68c0.09,0.02,0.37,0.12,0.37,0.12c0.96,0.28,2.15,0.41,3.43,0.35c1.37-0.06,2.6-0.33,3.56-0.73
			c0.8-0.3,1.6-0.75,2.38-1.36c0.05,0.38,0.2,0.75,0.45,1.13c0.6,0.88,1.67,1.14,2.26,1.21c0.8,0.1,2.23-0.14,2.89-0.4
			c0.7-0.29,1.36-0.74,1.98-1.35c0.65-0.63,1.23-1.24,1.71-2.12c0.27-0.5,0.56-1.03,0.76-1.59l0.3-0.84l1.32-3.67
			c0.63-0.08,1.28-0.2,1.91-0.34c0.42-0.11,0.84-0.23,1.24-0.37l-2.48,6.92c0,0.01-0.01,0.05-0.01,0.05l-0.04,0.1
			c-0.01,0.01-0.01,0.02-0.01,0.02v0.03v0.01c-0.18,0.65-0.18,1.3,0.02,1.85c0.28,0.72,0.83,1.18,1.06,1.32l0.03,0.02
			c0.02,0.01,0.03,0.02,0.05,0.03c0.03,0.02,0.07,0.05,0.12,0.07c0.06,0.03,0.12,0.06,0.18,0.08l0.04,0.02
			c0.03,0.01,0.04,0.02,0.06,0.03c0.03,0.01,0.08,0.02,0.12,0.04c0.07,0.03,0.13,0.04,0.21,0.07l0.03,0.01
			c0.01,0,0.02,0.01,0.04,0.01c0.04,0.01,0.09,0.03,0.13,0.03c0.09,0.02,0.15,0.03,0.22,0.04l0.05,0.01c0.01,0,0.01,0,0.02,0v0.01
			l0.13,0c0.08,0.01,0.14,0.01,0.2,0.01c0.29,0.02,0.55,0.03,0.79,0.03c2.19,0,4.24-0.58,5.9-1.61
			C124.94,37.14,125.19,37.35,125.45,37.54z M100.95,32.74c-0.36,0.54-0.76,1.02-1.17,1.43c-0.68,0.68-1.42,1.15-2.1,1.39
			c-0.04,0.01-0.08,0.03-0.13,0.03c-0.31-0.01-0.54-0.28-0.53-0.61c0-0.06,0.02-0.11,0.03-0.17l0,0V34.8l0,0l0.36-1l2.58-7.18
			c0.14-0.35,0.46-0.58,0.83-0.58c0.05,0,0.09,0.01,0.13,0.02c0.06,0.01,0.12,0.04,0.18,0.06l0.02,0.01l0,0
			c0.16,0.06,0.31,0.13,0.45,0.25C102.9,27.4,102.61,30.26,100.95,32.74z M110.88,25.63c-0.24-0.14-0.37-0.49-0.34-0.98
			c0.02-0.51,0.19-1.08,0.48-1.63c0.06-0.11,0.12-0.22,0.2-0.34c0.08-0.12,0.16-0.23,0.24-0.33c0.16-0.17,0.33-0.32,0.48-0.43
			c0.31-0.22,0.47-0.25,0.51-0.22c0.12,0.06,0.22,0.58-0.16,1.83c-0.2,0.64-0.49,1.35-0.85,2.09
			C111.28,25.69,111.07,25.72,110.88,25.63z M128.66,28.13c0.5-0.59,1.11-1.06,1.76-1.43c0.14-0.08,0.31-0.14,0.5-0.16
			c0.05,0,0.09-0.01,0.15-0.01c0.5,0,0.92,0.25,1.06,0.58c0.01,0.03,0.01,0.05,0.02,0.09c0,0.01,0,0.01,0.01,0.02
			c0.22,0.93-0.19,1.98-1.13,2.84c-0.29,0.28-0.65,0.54-1.04,0.77c-0.83,0.47-1.73,0.77-2.63,0.88
			C127.26,30.54,127.68,29.26,128.66,28.13z"/>
		<path class="st0" d="M33.96,17.3c0.32-0.05,0.63-0.12,0.93-0.18c0.18-0.03,0.36-0.08,0.53-0.13c0.02,0,0.06-0.01,0.08-0.01
			c0.09-0.03,0.2-0.06,0.3-0.1c2.25-0.72,4.08-2.35,5.07-4.47c-2.62,1.07-5.49,1.67-8.5,1.67c-1.77,0-3.62-0.49-5.33-0.86
			c-5.57-1.22-12.05-5.05-17.45-1.33c-0.62,0.42-1.37,0.98-1.81,1.6c-0.27,0.38-0.52,0.81-0.71,1.25c-0.36,0.82-0.57,1.74-0.57,2.69
			c0,3.72,3.02,6.75,6.76,6.75c0.83,0,1.63-0.15,2.36-0.43c-2.19-0.62-3.79-2.61-3.83-4.99c0-0.03,0-0.06,0-0.08
			c0-2.91,2.35-5.26,5.26-5.26c0.98,0,1.91,0.34,2.83,0.63c0.26,0.08,0.53,0.17,0.81,0.25c0.82,0.25,1.59,0.61,2.38,0.92
			c0.72,0.28,1.44,0.56,2.18,0.82l-8.94,25.56c-1.15,3.11-3.19,4.05-4.45,3.64c-1.31-0.4-1.88-2.27-1.44-4.12
			c0.04-0.16,0.08-0.32,0.14-0.49c0.4-1.15,1.12-2.05,1.94-2.5c-0.29-0.08-0.59-0.13-0.91-0.13c-1.98-0.01-3.71,1.81-3.83,4.07
			c-0.03,0.55,0.03,1.06,0.17,1.53c0.12,0.41,0.29,0.79,0.51,1.11c0.1,0.14,0.22,0.3,0.34,0.43c1.07,1.22,2.59,1.99,4.34,1.99
			c0.13,0,0.27-0.01,0.4-0.02c0.03,0,0.07,0,0.09-0.01c0.04,0,0.07,0,0.1-0.01c2.8-0.2,5.24-1.75,6.68-4
			c0.25-0.4,0.48-0.82,0.67-1.26c0.13-0.32,0.25-0.63,0.35-0.96l8.21-23.58C31.04,17.51,32.5,17.53,33.96,17.3z"/>
		<path class="st0" d="M47.47,24.87c-1.38-0.72-3.1-0.38-4.66,0.71c-0.12-0.32-0.41-0.56-0.77-0.6c-0.05-0.01-0.07-0.01-0.1-0.01
			c-0.04,0-0.07,0-0.11,0.01h-3.65l0,0l-1.77,0.01l-0.18,0.5c0.61,0.35,1.04,0.99,1.04,1.75c0,0.17-0.03,0.33-0.06,0.48L35,33.88
			h-0.02l-0.09,0.24c-0.18,0.25-0.41,0.51-0.73,0.71c-0.85,0.57-1.85,0.6-2.22,0.05c-0.17-0.25-0.17-0.57-0.06-0.92
			c0.02-0.04,0.02-0.08,0.04-0.12l1.45-4.04l1.75-4.86h-4.19v-0.01l-2.54,0.01l-0.18,0.49c0.6,0.34,1.02,0.98,1.02,1.72
			c0,0.19-0.03,0.36-0.07,0.52l0,0c-0.68,1.9-1.6,4.44-2.31,6.45l-0.04,0.16c-0.01,0.01-0.01,0.02-0.01,0.03l-0.01,0.03
			c0,0,0-0.01,0-0.02c-0.25,0.92-0.17,1.83,0.31,2.55c0.01,0.03,0.05,0.05,0.06,0.08l-0.01-0.01c0.03,0.05,0.08,0.09,0.11,0.14
			c0.05,0.05,0.09,0.1,0.14,0.15c0.06,0.05,0.12,0.1,0.17,0.15c0.06,0.04,0.1,0.08,0.16,0.12c0.06,0.04,0.13,0.09,0.2,0.13
			c0.05,0.03,0.1,0.07,0.16,0.1c0.07,0.04,0.16,0.07,0.24,0.1c0.05,0.03,0.11,0.05,0.16,0.07c0.09,0.03,0.18,0.06,0.26,0.07
			c0.06,0.02,0.13,0.04,0.18,0.05c0.09,0.02,0.19,0.03,0.28,0.05c0.06,0.01,0.12,0.02,0.18,0.03c0.11,0.01,0.22,0.01,0.33,0.01
			c0.06,0.01,0.11,0.01,0.17,0.01c0.16,0,0.33-0.01,0.5-0.03c0.99-0.1,2.05-0.49,3.02-1.15c0.21-0.14,0.42-0.31,0.62-0.47
			l-3.76,10.46c2.09,0.64,4.3-0.15,5.55-1.83c0.18-0.26,0.36-0.53,0.49-0.83c0.08-0.15,0.15-0.32,0.2-0.49l2.11-5.89
			c0.76,0.16,1.63,0.23,2.56,0.19c1.23-0.06,2.34-0.31,3.2-0.67l0,0c0.17-0.07,0.32-0.15,0.47-0.23c0.03-0.03,0.08-0.04,0.11-0.07
			c0.04-0.02,0.08-0.04,0.12-0.07c1.3-0.75,2.51-2.03,3.37-3.69C50.28,29.89,49.83,26.1,47.47,24.87z M45.08,30.24
			c-0.06,0.19-0.13,0.38-0.21,0.58c-0.03,0.06-0.06,0.11-0.08,0.18c-0.04,0.11-0.09,0.23-0.14,0.35c-1.2,2.85-2.81,4.97-3.85,5.18
			c-0.11,0.03-0.22,0.05-0.34,0.05c-0.47,0-0.88-0.23-1.13-0.58c0-0.01,0-0.02-0.01-0.02l0.76-2.1l2.13-5.95
			c0.7-0.81,1.54-1.2,2.2-0.92C45.26,27.36,45.52,28.75,45.08,30.24z"/>
	</g>
</g>
</svg>
