<?xml version="1.0" encoding="utf-8"?>
<!-- Generator: Adobe Illustrator 24.1.1, SVG Export Plug-In . SVG Version: 6.00 Build 0)  -->
<svg version="1.1" id="Capa_1" xmlns="http://www.w3.org/2000/svg" xmlns:xlink="http://www.w3.org/1999/xlink" x="0px" y="0px"
	 viewBox="0 0 180 180" style="enable-background:new 0 0 180 180;" xml:space="preserve">
<style type="text/css">
	.st0{fill-rule:evenodd;clip-rule:evenodd;fill:#FFFFFF;}
</style>
<g>
	<g>
		<path class="st0" d="M91.52,14.29c-40.81,0-73.9,33.09-73.9,73.9c0,13.96,3.87,27.02,10.6,38.16L14.89,166l40.91-13.1
			c10.59,5.85,22.76,9.19,35.72,9.19c40.82,0,73.9-33.09,73.9-73.9C165.43,47.37,132.34,14.29,91.52,14.29z M91.52,149.71
			c-12.49,0-24.13-3.75-33.85-10.17l-23.64,7.57l7.68-22.84C34.35,114.12,30,101.66,30,88.19c0-33.92,27.6-61.52,61.52-61.52
			c33.93,0,61.52,27.6,61.52,61.52C153.04,122.11,125.45,149.71,91.52,149.71z M126.17,104.98c-1.85-1.01-10.95-5.93-12.66-6.62
			c-1.71-0.69-2.95-1.05-4.28,0.79c-1.33,1.84-5.1,5.95-6.25,7.17c-1.15,1.22-2.25,1.33-4.11,0.31c-1.85-1.01-7.85-3.23-14.82-9.93
			c-5.42-5.21-8.97-11.53-10-13.46c-1.03-1.93-0.01-2.91,0.97-3.82c0.88-0.82,1.97-2.13,2.95-3.2c0.98-1.07,1.33-1.84,2-3.07
			c0.68-1.24,0.4-2.35-0.03-3.31c-0.44-0.96-3.86-10.39-5.29-14.22c-1.43-3.83-3.02-3.26-4.13-3.31c-1.1-0.04-2.35-0.24-3.61-0.29
			c-1.26-0.05-3.32,0.35-5.12,2.17c-1.8,1.82-6.84,6.2-7.19,15.49c-0.35,9.28,6.07,18.5,6.97,19.79
			c0.9,1.29,12.26,21.41,31.16,29.69c18.9,8.27,18.99,5.75,22.46,5.56c3.47-0.18,11.33-4.15,13.07-8.49
			c1.74-4.34,1.88-8.12,1.44-8.93C129.26,106.52,128.02,105.99,126.17,104.98z"/>
	</g>
</g>
</svg>
